<svg xmlns="http://www.w3.org/2000/svg" viewBox="0 0 920 540" role="img" aria-labelledby="title desc"><title id="title">Farestorm measured taxi acceleration</title><desc id="desc">Full-throttle acceleration without boost. Gull reaches 100 km/h in 4.87 seconds, Breaker in 5.10, Tempest in 5.70. Measured with the fixed sixty-hertz vehicle simulation.</desc><rect width="920" height="540" fill="#faf7ef"/><g font-family="Arial, sans-serif" fill="#143e49"><text x="54" y="44" font-size="25" font-weight="700">GALEPORT / TAXI TELEMETRY</text><text x="54" y="70" font-size="13">Full throttle · no boost · 60 Hz physics · measured September 28, 2026</text><line x1="86" y1="432" x2="868" y2="432" stroke="#d6dedb"/><text x="73" y="436" font-size="12" text-anchor="end">0</text><line x1="86" y1="377.5" x2="868" y2="377.5" stroke="#d6dedb"/><text x="73" y="381.5" font-size="12" text-anchor="end">30</text><line x1="86" y1="323" x2="868" y2="323" stroke="#d6dedb"/><text x="73" y="327" font-size="12" text-anchor="end">60</text><line x1="86" y1="268.5" x2="868" y2="268.5" stroke="#d6dedb"/><text x="73" y="272.5" font-size="12" text-anchor="end">90</text><line x1="86" y1="214" x2="868" y2="214" stroke="#d6dedb"/><text x="73" y="218" font-size="12" text-anchor="end">120</text><line x1="86" y1="159.5" x2="868" y2="159.5" stroke="#d6dedb"/><text x="73" y="163.5" font-size="12" text-anchor="end">150</text><line x1="86" y1="105" x2="868" y2="105" stroke="#d6dedb"/><text x="73" y="109" font-size="12" text-anchor="end">180</text><line x1="86" y1="105" x2="86" y2="432" stroke="#e8ece7"/><text x="86" y="454" font-size="12" text-anchor="middle">0</text><line x1="146.15384615384616" y1="105" x2="146.15384615384616" y2="432" stroke="#e8ece7"/><text x="146.15384615384616" y="454" font-size="12" text-anchor="middle">1</text><line x1="206.30769230769232" y1="105" x2="206.30769230769232" y2="432" stroke="#e8ece7"/><text x="206.30769230769232" y="454" font-size="12" text-anchor="middle">2</text><line x1="266.46153846153845" y1="105" x2="266.46153846153845" y2="432" stroke="#e8ece7"/><text x="266.46153846153845" y="454" font-size="12" text-anchor="middle">3</text><line x1="326.61538461538464" y1="105" x2="326.61538461538464" y2="432" stroke="#e8ece7"/><text x="326.61538461538464" y="454" font-size="12" text-anchor="middle">4</text><line x1="386.7692307692308" y1="105" x2="386.7692307692308" y2="432" stroke="#e8ece7"/><text x="386.7692307692308" y="454" font-size="12" text-anchor="middle">5</text><line x1="446.92307692307696" y1="105" x2="446.92307692307696" y2="432" stroke="#e8ece7"/><text x="446.92307692307696" y="454" font-size="12" text-anchor="middle">6</text><line x1="507.07692307692304" y1="105" x2="507.07692307692304" y2="432" stroke="#e8ece7"/><text x="507.07692307692304" y="454" font-size="12" text-anchor="middle">7</text><line x1="567.2307692307693" y1="105" x2="567.2307692307693" y2="432" stroke="#e8ece7"/><text x="567.2307692307693" y="454" font-size="12" text-anchor="middle">8</text><line x1="627.3846153846154" y1="105" x2="627.3846153846154" y2="432" stroke="#e8ece7"/><text x="627.3846153846154" y="454" font-size="12" text-anchor="middle">9</text><line x1="687.5384615384615" y1="105" x2="687.5384615384615" y2="432" stroke="#e8ece7"/><text x="687.5384615384615" y="454" font-size="12" text-anchor="middle">10</text><line x1="747.6923076923077" y1="105" x2="747.6923076923077" y2="432" stroke="#e8ece7"/><text x="747.6923076923077" y="454" font-size="12" text-anchor="middle">11</text><line x1="807.8461538461539" y1="105" x2="807.8461538461539" y2="432" stroke="#e8ece7"/><text x="807.8461538461539" y="454" font-size="12" text-anchor="middle">12</text><line x1="868" y1="105" x2="868" y2="432" stroke="#e8ece7"/><text x="868" y="454" font-size="12" text-anchor="middle">13</text><text x="27" y="272" font-size="13" transform="rotate(-90 27 272)">SPEED / KM/H</text><text x="450" y="482" font-size="13" text-anchor="middle">TIME / SECONDS</text><polyline points="86.00,431.27 146.15,390.40 206.31,351.34 266.46,313.92 326.62,278.67 386.77,245.25 446.92,214.00 507.08,184.93 567.23,157.87 627.38,145.15 687.54,145.15 747.69,145.15 807.85,145.15 868.00,145.15" fill="none" stroke="#b4901a" stroke-width="3.5" stroke-linejoin="round"/><line x1="85" y1="515" x2="111" y2="515" stroke="#b4901a" stroke-width="4"/><text x="120" y="520" font-size="13">GULL / 0–100: 4.87 s</text><polyline points="86.00,431.27 146.15,392.03 206.31,354.43 266.46,318.46 326.62,284.49 386.77,252.33 446.92,222.36 507.08,194.20 567.23,168.04 627.38,143.70 687.54,121.35 747.69,119.71 807.85,119.71 868.00,119.71" fill="none" stroke="#de654b" stroke-width="3.5" stroke-linejoin="round"/><line x1="351" y1="515" x2="377" y2="515" stroke="#de654b" stroke-width="4"/><text x="386" y="520" font-size="13">BREAKER / 0–100: 5.10 s</text><polyline points="86.00,431.45 146.15,395.85 206.31,361.69 266.46,329.18 326.62,298.29 386.77,269.04 446.92,241.61 507.08,215.82 567.23,191.84 627.38,169.49 687.54,148.78 747.69,129.71 807.85,112.09 868.00,105.18" fill="none" stroke="#21857e" stroke-width="3.5" stroke-linejoin="round"/><line x1="617" y1="515" x2="643" y2="515" stroke="#21857e" stroke-width="4"/><text x="652" y="520" font-size="13">TEMPEST / 0–100: 5.70 s</text></g></svg>
